# xmcd
#
# Track frame offsets:
#	150
#	12911
#	23812
#	35594
#	46725
#	58451
#	69014
#	81207
#	91920
#	102911
#	114812
#	127200
#	138118
#	150691
#	163905
#	177209
#	192143
#	203660
#	215031
#	226879
#	237418
#	248932
#	260958
#	277867
#	289872
#	304454
#	319030
#	332125
#
# Disc length: 4640 seconds
#
# Revision: 1
# Processed by: cddbd v1.5.2PL0 Copyright (c) Steve Scherf et al.
# Submitted via: audiograbber 1.83.01
#
DISCID=94121e1c
DTITLE=George Jones - Country Classics#6
DYEAR=1900
DGENRE=Country
TTITLE0=White lighting
TTITLE1=Who Shot Sam
TTITLE2=The Window Up Above
TTITLE3=Tender Years
TTITLE4=She Thinks I Still Care
TTITLE5=Why, Baby Why
TTITLE6=You Comb Her Hair
TTITLE7=Treasure Of Love
TTITLE8=Relief Is Just A Swallow Away
TTITLE9=You Better Treat Your Man Right
TTITLE10=A Girl I Used To Know
TTITLE11=Tell Me My Lying Eyes Are Wrong
TTITLE12=If My Heart Had Windows
TTITLE13=Things Have Gone To Pieces
TTITLE14=When Grass Grows Over me
TTITLE15=Where Grass Wont Grow
TTITLE16=I'll Share My World With You
TTITLE17=As Long As I Live
TTITLE18=Small Time Loboring Man
TTITLE19=Walk Through This World With Me
TTITLE20=A Picture Of Me Without You
TTITLE21=Once You've Had The Best
TTITLE22=When Did You Stop Loving Me
TTITLE23=What My Woman Can't Eo
TTITLE24=I'll Just Take It Out In Love
TTITLE25=If Drinking Don't Kill Me
TTITLE26=Achin Breaking Heart
TTITLE27=I Sleep Just Like A Baby
EXTD=
EXTT0=
EXTT1=
EXTT2=
EXTT3=
EXTT4=
EXTT5=
EXTT6=
EXTT7=
EXTT8=
EXTT9=
EXTT10=
EXTT11=
EXTT12=
EXTT13=
EXTT14=
EXTT15=
EXTT16=
EXTT17=
EXTT18=
EXTT19=
EXTT20=
EXTT21=
EXTT22=
EXTT23=
EXTT24=
EXTT25=
EXTT26=
EXTT27=
PLAYORDER=
